<svg xmlns="http://www.w3.org/2000/svg" viewBox="0 0 696.23 210.25"><defs><style>.cls-1{fill:#004a98;}.cls-2{fill:#fff;}</style></defs><title>logo</title><g id="Capa_2" data-name="Capa 2"><g id="Capa_1-2" data-name="Capa 1"><rect class="cls-1" x="8.48" y="8.5" width="679.26" height="193.26"/><path class="cls-2" d="M0,0V210.25H696.23V0ZM687.74,8.5V201.76H8.48V8.5Z"/><polygon class="cls-2" points="75.15 131.99 75.13 68.46 75.13 67.14 73.82 67.14 67.22 67.14 65.89 67.14 65.89 68.46 65.92 140.28 65.92 141.59 67.23 141.59 97.41 141.6 98.72 141.6 98.72 140.29 98.72 133.31 98.72 132 97.41 132 75.15 131.99"/><path class="cls-2" d="M157.52,84.73h-1.31l-6.33,0h-1.33v6.2a22.93,22.93,0,0,0-6.15-4.72,24.4,24.4,0,0,0-11.32-2.67h0a26,26,0,0,0-19.89,8.59c-5.26,5.69-7.93,12.85-7.93,21.29,0,8.29,2.61,15.34,7.76,21a26.43,26.43,0,0,0,31.31,5.79,23.32,23.32,0,0,0,6.29-4.72v6.1h9v-1.31l0-54.24ZM130.84,92.6c4.67,0,8.68,2,12.3,6a20.41,20.41,0,0,1,5.43,14.18,22.1,22.1,0,0,1-5.4,15c-3.61,4.13-7.69,6.13-12.48,6.13a16.53,16.53,0,0,1-12.75-5.82,20.67,20.67,0,0,1-5.39-14.42c0-6.06,1.78-11,5.4-15A16.49,16.49,0,0,1,130.84,92.6Z"/><path class="cls-2" d="M222.22,68l-.32-.87h-9.78l-.3.86-26,71.81-.64,1.75,1.86,0,7,0H195l.31-.87,7.7-21.67h28l7.72,21.68.3.87h.95l7,0h1.87l-.64-1.77Zm5.48,42H206.19L216.85,79.2Z"/><path class="cls-2" d="M277.42,85.21V83.86l-1.35,0a15,15,0,0,0-7.21,2,15.7,15.7,0,0,0-3.22,2.63V84.71l-1.31,0h-7.46V86l0,54.25v1.31h9.24v-1.31l0-32.74c0-4.66.8-8,2.36-10s4.15-3.08,7.81-3.45l1.2-.1V92.79Z"/><path class="cls-2" d="M336.72,84.73h-8.93V90.9a22.7,22.7,0,0,0-6.17-4.7,24.37,24.37,0,0,0-11.34-2.69,26.18,26.18,0,0,0-19.91,8.6c-5.27,5.7-7.92,12.85-7.91,21.28,0,8.28,2.6,15.35,7.75,21a26.4,26.4,0,0,0,31.3,5.8,23.32,23.32,0,0,0,6.3-4.72v6.1h9v-1.31l0-54.24Zm-26.84,49.84v-.66a16.55,16.55,0,0,1-12.73-5.82,20.33,20.33,0,0,1-5.38-14.42,22,22,0,0,1,5.39-15.08,16.75,16.75,0,0,1,12.89-6c4.67,0,8.7,2,12.32,6a20.72,20.72,0,0,1,5.41,14.19,22.13,22.13,0,0,1-5.39,15c-3.59,4.12-7.68,6.14-12.5,6.14v.66Z"/><path class="cls-2" d="M393.75,84.71h-1.33l-6.51,0H384.6V86l0,26.67a66.74,66.74,0,0,1-.49,9.81,15.1,15.1,0,0,1-1.52,4.59,12.94,12.94,0,0,1-4.85,5,13.82,13.82,0,0,1-7,1.72c-4.67,0-8-1.37-10-4.06-2.06-2.86-3.12-7.86-3.12-14.94V84.73h-9.07V86l0,28.28c0,10,1.72,17.38,5.11,21.83s9.13,6.85,16.85,6.85a21.82,21.82,0,0,0,9.36-1.84,18.19,18.19,0,0,0,4.7-3.31v3.74h9.16v-1.33l0-54.23Z"/><path class="cls-2" d="M430,92.41A16.75,16.75,0,0,1,439.56,95a20.77,20.77,0,0,1,6.85,8.26l.36.72h9.85l-.62-1.76a29.8,29.8,0,0,0-9.86-14,24.7,24.7,0,0,0-15.32-5A25.78,25.78,0,0,0,411.18,92a30.41,30.41,0,0,0-8,21.28,30.43,30.43,0,0,0,7.9,21,26.34,26.34,0,0,0,35.23,3.7c4.39-3.36,7.63-8.15,9.7-14.3l.56-1.73h-9.84l-.35.81a18,18,0,0,1-6.4,8.12,16.5,16.5,0,0,1-9.63,2.9,16,16,0,0,1-12.6-5.85,21.84,21.84,0,0,1-5.15-14.78c0-6,1.69-10.86,5.12-14.89A15.55,15.55,0,0,1,430,92.41Z"/><path class="cls-2" d="M519.06,84.73h-8.95v6.2a22.71,22.71,0,0,0-6.17-4.73,24.07,24.07,0,0,0-11.28-2.68h-.07a26.12,26.12,0,0,0-19.9,8.59c-5.24,5.69-7.91,12.83-7.91,21.27,0,8.27,2.61,15.35,7.76,21a26.39,26.39,0,0,0,31.29,5.8,23.2,23.2,0,0,0,6.31-4.73v6.11h9v-1.33l0-54.23ZM492.39,92.6c4.66,0,8.69,2,12.3,6a20.5,20.5,0,0,1,5.43,14.19,22.08,22.08,0,0,1-5.41,15c-3.6,4.14-7.67,6.14-12.45,6.14h0a16.6,16.6,0,0,1-12.77-5.82,20.48,20.48,0,0,1-5.36-14.42,21.87,21.87,0,0,1,5.39-15.08A16.54,16.54,0,0,1,492.39,92.6Z"/><path class="cls-2" d="M572.59,92.83A18.22,18.22,0,0,0,565.17,86a22.71,22.71,0,0,0-10.5-2.34,23.43,23.43,0,0,0-9.56,1.87,20.12,20.12,0,0,0-5.06,3.37V84.73h-1.33l-6.31,0h-1.31V86l0,54.25v1.33h1.31l6.32,0h1.34v-1.31l0-26.4a71.13,71.13,0,0,1,.45-9.67,15.09,15.09,0,0,1,1.55-4.64,12.14,12.14,0,0,1,4.75-4.93,14,14,0,0,1,7.11-1.73c4.66,0,7.92,1.27,10,3.83s3.14,7.07,3.16,13.15v31.7h9V111.9a71.55,71.55,0,0,0-.78-11.8A22.57,22.57,0,0,0,572.59,92.83Z"/><path class="cls-2" d="M639.8,86.05V84.74h-1.32l-6.33,0h-1.3v6.2a23.15,23.15,0,0,0-6.17-4.71,24.26,24.26,0,0,0-11.35-2.69,26.14,26.14,0,0,0-19.91,8.6c-5.26,5.7-7.93,12.85-7.93,21.28s2.61,15.37,7.78,21a26.35,26.35,0,0,0,31.3,5.77,23,23,0,0,0,6.29-4.7l0,4.79v1.31h8.94v-1.31Zm-26.69,6.56c4.64,0,8.76,2,12.3,6a20.44,20.44,0,0,1,5.45,14.18,22.15,22.15,0,0,1-5.41,15c-3.54,4.07-7.74,6.14-12.46,6.14a16.62,16.62,0,0,1-12.78-5.82,20.53,20.53,0,0,1-5.37-14.42,21.74,21.74,0,0,1,5.4-15.07A16.66,16.66,0,0,1,613.11,92.61Z"/></g></g></svg>