<svg id="Capa_1" data-name="Capa 1" xmlns="http://www.w3.org/2000/svg" viewBox="0 0 109.3 31.3"><defs><style>.cls-1{fill:#2b2b2b;}.cls-2{fill:#e53f40;}.cls-3{fill:#006fb3;}</style></defs><polygon id="Fill-3" class="cls-1" points="54 31.3 54.7 31.3 54.7 14 54 14 54 31.3"/><path id="Fill-4" class="cls-1" d="M70,27.6a10.64,10.64,0,0,1-4.5,1.1c-3.7,0-5.5-2.4-5.5-6.1s1.8-5.9,5.7-5.9a6.94,6.94,0,0,1,4.1,1.1l-1.2,2.1a5.87,5.87,0,0,0-2.9-.8c-2,0-2.8,1.3-2.8,3.5,0,2.6.9,3.9,2.8,3.9a4,4,0,0,0,1.7-.3V24.5H66l-.2-2H70Z" transform="translate(0 0)"/><path id="Fill-5" class="cls-1" d="M76.6,24.3c0-1.9-.5-2.4-1.3-2.4s-1.3.4-1.3,2.4.5,2.4,1.3,2.4,1.3-.5,1.3-2.4m2.7,0c0,2.9-1.4,4.4-4,4.4s-4-1.5-4-4.4c0-2.4,1.4-4.3,4-4.3s4,1.9,4,4.3" transform="translate(0 0)"/><path id="Fill-6" class="cls-1" d="M84,25.9a1.65,1.65,0,0,0,1.3.8c.7,0,1.4-.6,1.4-2.4s-.6-2.4-1.4-2.4a1.9,1.9,0,0,0-1.3.5Zm-1.3,2.6H81.3V16.7H84v2.8L83.8,21a2.5,2.5,0,0,1,2.1-1c1.8,0,3.4,1.3,3.4,4.3s-1.8,4.4-3.7,4.4a2.42,2.42,0,0,1-2.4-1.2Z" transform="translate(0 0)"/><polygon id="Fill-7" class="cls-1" points="90.7 28.7 93.3 28.7 93.3 26 90.7 26 90.7 28.7"/><path id="Fill-8" class="cls-1" d="M101.3,22.5a5,5,0,0,0-2.1-.5c-1,0-1.7.6-1.7,2.3s.6,2.3,1.7,2.3a5.58,5.58,0,0,0,2.3-.6l.5,1.9a8.21,8.21,0,0,1-3,.7c-2.8,0-4.3-1.5-4.3-4.4,0-2.7,1.5-4.3,4.3-4.3a5.56,5.56,0,0,1,3,.7Z" transform="translate(0 0)"/><path id="Fill-9" class="cls-1" d="M106.1,16.7v9.2a.66.66,0,0,0,.6.7l.7.1v1.9a7.1,7.1,0,0,1-1.4.2c-1.7,0-2.6-.9-2.6-2.3V16.8h2.7Z" transform="translate(0 0)"/><polygon id="Fill-10" class="cls-2" points="54.7 6 109.3 6 109.3 0 54.7 0 54.7 6"/><polygon id="Fill-11" class="cls-3" points="0 6 54.7 6 54.7 0 0 0 0 6"/><path class="cls-1" d="M47.6,22V19.7l-.2-.7a.52.52,0,0,0,.2-.4.5.5,0,0,0-1,0,.52.52,0,0,0,.2.4l-.2.6H43.9l-.2-.6a.52.52,0,0,0,.2-.4.5.5,0,0,0-1,0,.52.52,0,0,0,.2.4l-.2.6H40.1L40,19a.52.52,0,0,0,.2-.4.5.5,0,0,0-1,0,.52.52,0,0,0,.2.4l-.2.6H36.4l-.2-.6a.52.52,0,0,0,.2-.4.5.5,0,0,0-1,0,.52.52,0,0,0,.2.4l-.2.6H32.7V17.5l-.2-.6a.52.52,0,0,0,.2-.4.5.5,0,0,0-1,0,.52.52,0,0,0,.2.4l-.2.6H27.8l-.2-.6a.52.52,0,0,0,.2-.4.5.5,0,0,0-1,0,.52.52,0,0,0,.2.4v.6H23l-.1-.5a.76.76,0,0,0,.2-.4.5.5,0,0,0-1,0,.76.76,0,0,0,.2.4l-.2.6H18.2l-.2-.7a.52.52,0,0,0,.2-.4.5.5,0,0,0-1,0,.52.52,0,0,0,.2.4l-.2.6v2.1H14.5l-.2-.6a.76.76,0,0,0,.2-.4.5.5,0,0,0-1,0,.52.52,0,0,0,.2.4l-.2.6H10.7l-.2-.6a.52.52,0,0,0,.2-.4.5.5,0,0,0-1,0,.52.52,0,0,0,.2.4l-.2.6H7.1L6.9,19a.52.52,0,0,0,.2-.4.5.5,0,0,0-1,0,.52.52,0,0,0,.2.4l-.2.6H3.4L3.2,19a.52.52,0,0,0,.2-.4.47.47,0,0,0-.5-.5.47.47,0,0,0-.5.5.52.52,0,0,0,.2.4l-.2.7V22H2v1.2h.4v4.2H2v1.2H23.4V24a1.7,1.7,0,0,1,3.4,0v4.6H48V27.4h-.4V23.2H48V22Zm-42,5.4H4.1v-2H5.6Zm0-5.2v2H4.1V22.1H5.6Zm3.8,5.2H7.9v-2H9.4Zm0-5.2v2H7.9V22.1H9.4Zm3.8,5.2H11.7v-2h1.5Zm0-5.2v2H11.7V22.1h1.5ZM17,27.4H15.4v-2H17Zm0-3.3h0l-.1.1H15.4v-2h.1v-.1H17Zm3.8,3.3H19.3v-2h1.5Zm0-5.2v2H19.3V22.1h1.5Zm0-1.2H19.3V19h1.5Zm5.1,0H24.1V19h1.8Zm4.7,6.4H29.1v-2h1.5Zm0-5.2v2H29.1V22.1h1.5Zm0-1.2H29.1V19h1.5Zm3.9,6.4H33v-2h1.5Zm0-5.2v2H33V22.1h1.5Zm3.8,5.2H36.8v-2h1.5Zm0-5.2v2H36.8V22.1h1.5ZM42,27.4H40.5v-2H42Zm0-5.2v2H40.5V22.1H42Zm3.8,5.2H44.3v-2h1.5Zm0-5.2v2H44.3V22.1h1.5Z" transform="translate(0 0)"/></svg>