<svg xmlns="http://www.w3.org/2000/svg" xmlns:xlink="http://www.w3.org/1999/xlink" width="478.61" height="142.15" viewBox="0 0 478.61 142.15"><defs><clipPath id="a"><circle cx="64.15" cy="71.08" r="35.81" fill="none"/></clipPath><clipPath id="b"><rect x="21.72" y="6.12" width="87.94" height="101.67" fill="none"/></clipPath><clipPath id="c"><rect x="17.25" y="-1.66" width="93.65" height="70.47" fill="none"/></clipPath></defs><path d="M308.39,53.65a31,31,0,1,0,31,31A31,31,0,0,0,308.39,53.65Zm0,44.66a13.67,13.67,0,1,1,13.66-13.67A13.68,13.68,0,0,1,308.39,98.31Z" fill="#7849b8"/><polygon points="378.88 55.12 370.42 55.12 370.42 36.82 351.89 36.82 351.89 55.12 343.42 55.12 343.42 71.89 351.89 71.89 351.89 114.17 370.42 114.17 370.42 71.89 378.88 71.89 378.88 55.12" fill="#7849b8"/><rect x="387.38" y="55.12" width="18.53" height="59.05" fill="#7849b8"/><path d="M396.64,26.5A10.32,10.32,0,1,0,407,36.82,10.33,10.33,0,0,0,396.64,26.5Z" fill="#7849b8"/><path d="M213.59,98.28a27,27,0,0,0,1.9-10.88c0-6-1.87-11.29-5.26-15-4-4.34-10.72-7.93-20.1-10.7a32.71,32.71,0,0,1-5.27-2,12.72,12.72,0,0,1-3.92-2.92A6.63,6.63,0,0,1,179.25,52c0-2.74,1.47-4.6,3.86-6.1,3-1.89,8.75-2.07,14.65.11a35.75,35.75,0,0,1,6,2.83l7.88-15.67a44.43,44.43,0,0,0-11.3-5.09,49.42,49.42,0,0,0-12.58-1.59A33.73,33.73,0,0,0,176,28.44a26.84,26.84,0,0,0-9,5.86,27.72,27.72,0,0,0-6,9,28.78,28.78,0,0,0-2,10.92,23,23,0,0,0,7,15.65c5.4,5.06,11.52,6.86,14,7.81s5.18,1.75,6.91,2.44a25.14,25.14,0,0,1,5.07,2.59,8.08,8.08,0,0,1,2.7,3,6.72,6.72,0,0,1,.58,3.77,7.69,7.69,0,0,1-2.64,5.09c-1.58,1.49-4.45,2.35-8.51,2.35a25.81,25.81,0,0,1-10.34-2.49,72.61,72.61,0,0,1-8.39-4.45l-9.26,16.14c6.46,5.74,16.94,9.57,26.27,9.57a44.81,44.81,0,0,0,14-2.23,32.19,32.19,0,0,0,10.58-5.92A27.29,27.29,0,0,0,213.59,98.28Z" fill="#7849b8"/><path d="M264.33,93.21a13.67,13.67,0,1,1,0-17.13L276.62,63.8a30.92,30.92,0,0,0-22.93-10.16c-17.09,0-32,12.17-32,31s14.89,31,32,31a30.92,30.92,0,0,0,22.93-10.16Z" fill="#7849b8"/><path d="M478.39,114.17v-59H460.33v6.21l-1.67-1.5a22.58,22.58,0,0,0-15.56-6.19c-15.94,0-29.41,14.2-29.41,31s13.47,31,29.41,31a22.58,22.58,0,0,0,15.56-6.19l1.67-1.5v6.21ZM446,98.59a14,14,0,1,1,13.95-14A14,14,0,0,1,446,98.59Z" fill="#7849b8"/><path d="M104.38,26.5H64.15A44.58,44.58,0,0,0,19.84,66.12h0A44.59,44.59,0,0,1,58.87,0h69.42Z" fill="#7849b8"/><path d="M23.92,115.65H64.15A44.57,44.57,0,0,0,108.45,76h0a44.59,44.59,0,0,1-39,66.12H0Z" fill="#7849b8"/><circle cx="64.15" cy="71.08" r="35.81" fill="#aea9f4"/><g clip-path="url(#a)"><g clip-path="url(#b)"><path d="M55.39,35.71h0Z" fill="#f5dfe1"/><path d="M73,35.71h0Z" fill="#f5dfe1"/><rect x="31.55" y="72.68" width="11.46" height="30.99" fill="#f2609e"/><path d="M83.3,26.43a24.1,24.1,0,0,0-4.85-9.75,18.75,18.75,0,0,0-8.26-5.87,18.36,18.36,0,0,0-11.83,0,18.86,18.86,0,0,0-8.27,5.87c-3,3.49-4.15,7-5.24,10.8-4.23,14.68-6.35,22-4.2,25.58a9.63,9.63,0,0,0,2,2.33,12.75,12.75,0,0,1-1.17-3.25c-.32-1.48-.52-3.7,1.05-9.18a62.18,62.18,0,0,1,3.15-8.53,33.42,33.42,0,0,0-2.76,10.89c-.31,4-.52,6.7.79,9.19C47,60.73,57.31,60.85,64.4,60.94c6.87.08,13.21.16,17-4.44a13.4,13.4,0,0,0,2.8-8.16,10,10,0,0,1-1.42,8.49,11.22,11.22,0,0,0,3-2,12,12,0,0,0,2.32-3.17C89.59,48.68,87.49,41.26,83.3,26.43Z" fill="#232323"/><path d="M93.27,73.2l-.3-.15a56.28,56.28,0,0,0-5.64-1.63c-1.17-.31-2.58-.73-4.36-1.34A27.42,27.42,0,0,1,77.86,68c-3.25-2-4-5.2-4.81-8.4a20.19,20.19,0,0,1-.38-7.36L64.82,41.83l-.34-.44-.34.44L56.29,52.22a20.93,20.93,0,0,1-.34,7C55.21,62.54,54.45,66,51.1,68A27.71,27.71,0,0,1,46,70.08c-1.78.61-3.19,1-4.36,1.34A52.66,52.66,0,0,0,36,73.06l-.28.14c-1.09.54-3,1.94-4.48,6,.78,1,11.85,14.39,32.69,14.64A44.07,44.07,0,0,0,97.76,79.23C96.31,75.13,94.35,73.74,93.27,73.2Z" fill="#f98562"/><path d="M56.38,51.83l.15,1.5a19.55,19.55,0,0,0,4.72,5,5.34,5.34,0,0,0,2.89,1.31c.34,0,1.58.08,3.8-1.44a15.59,15.59,0,0,0,4.47-4.72L72.63,52a17.08,17.08,0,0,1-16.25-.15Z" fill="#d3413d" opacity="0.85"/><path d="M51.16,34.34c-.68-.7-1.86-1.18-2.41-.77s-.25,1.12.17,3.61c.68,4,.52,4.26,1,5.19.9,1.61,2.67,3.21,3.4,2.84.91-.47-.87-3.48-1.29-8.55A3.74,3.74,0,0,0,51.16,34.34Z" fill="#ea5757"/><path d="M78.31,34.35c.67-.7,1.86-1.17,2.4-.77s.25,1.12-.17,3.61c-.68,4-.51,4.26-1,5.2-.89,1.61-2.67,3.21-3.4,2.83-.91-.47.87-3.48,1.29-8.55A3.72,3.72,0,0,1,78.31,34.35Z" fill="#ea5757"/><circle cx="51.39" cy="43.36" r="1.52" fill="#fff"/><circle cx="78.2" cy="43.36" r="1.52" fill="#fff"/><path d="M72.26,15.7a14.51,14.51,0,0,0-22,10.5c-.06.56-.07,1.16-.08,2.36,0,1,0,1.91,0,2.78.1,2.67.41,5,.49,5.63.9,6.71,1.35,10.06,2.07,11.52,1.91,3.85,4.87,5.83,7.47,7.58a7.72,7.72,0,0,0,4.42,1.71,7.68,7.68,0,0,0,4.42-1.71c2.47-1.67,5.62-3.81,7.56-7.94.48-1,1-4.4,2-11.16a47.13,47.13,0,0,0,.51-5.51c0-.9,0-1.87,0-2.9s0-1.57-.12-2.19A14.93,14.93,0,0,0,72.26,15.7Z" fill="#f98562"/><path d="M64.94,12.45a15.49,15.49,0,0,0-10.92,4,14.73,14.73,0,0,0-4.75,8.48,31.06,31.06,0,0,0,0,6.07c.07.76.25,1.89.61,4.14a8.15,8.15,0,0,0,.38,1.52,8.4,8.4,0,0,0,.58,1.22,40.31,40.31,0,0,1,.23-4.37h0s0-.37.07-.7a22.93,22.93,0,0,1,1.25-5.1,12.84,12.84,0,0,1,1.47-2.82,12.41,12.41,0,0,1,5.29-4.16,14.43,14.43,0,0,1,5-1.24c.19-1.08.4-2.23.51-3.45Z" fill="#232323"/><path d="M64.41,12.45a15.6,15.6,0,0,1,11,4,14.62,14.62,0,0,1,4.77,8.48,29.55,29.55,0,0,1,0,6.07c-.06.76-.24,1.89-.6,4.14a7.61,7.61,0,0,1-.39,1.52,8.4,8.4,0,0,1-.58,1.22,40.31,40.31,0,0,0-.23-4.37l-.07-.7c-.17-1.39-.89-5.41-2.73-7.92C72,20,66.06,19.54,65.3,19.49Z" fill="#232323"/><path d="M92.2,100.77c0-.08,0-.68.1-1.51,0-.46.07-1,.12-1.6.33-4,.78-7.18,1.06-9,.06-.35.1-.64.14-.87l.07-.47c.07-.4.26-5.14.65-17.18-.92,0-1.88-.13-2.89-.26A36.1,36.1,0,0,1,85,68.42a45.81,45.81,0,0,1-41.59.27c-1.23.28-2.49.54-3.81.78-2.1.39-4.11.69-6,.92a54.05,54.05,0,0,0,.92,9.69c.51,2.7,1,4,1.68,7.38.59,3,1,5.79,1.38,8.47l-1.23,30.88,1.95,4.37c7.22-1.06,15.05-1.93,23.42-2.45a280.34,280.34,0,0,1,28.3-.34C91.61,108.56,92.15,101.65,92.2,100.77Z" fill="#f2609e"/><path d="M103.44,98.8c-1.13-14.58.29-19-3.67-23.62a15.7,15.7,0,0,0-5-3.81q-2.25,13-4.51,26.08a47.38,47.38,0,0,1,1,9c0,2.36.44,3.69,0,5.44a12.06,12.06,0,0,1-3.76,5.64,27.22,27.22,0,0,0,2.63,10.89,24.92,24.92,0,0,0,1.87,3.27,8.17,8.17,0,0,0,5.47-.12c2.78-1.21,4-4.2,5-6.56a26,26,0,0,0,1.84-9.18A136.58,136.58,0,0,0,103.44,98.8Z" fill="#f2609e"/><path d="M90.77,86.79C90,90.4,89.49,93.12,89,96.58c-.23,1.66-.44,3.31-.67,5-.2,1.45-.35,2.93-.66,4.36-.26,1.17-.61,2.33-.77,3.52a4.86,4.86,0,0,0,.3,2.87L74.92,127.86c2.52.62,6,1.44,10.1,2.37,11.48,2.56,12.89,2.46,14.17,1.83,3.45-1.68,4.66-7.35,5.38-18.76a193,193,0,0,0-.39-29.13,21.75,21.75,0,0,0-3-9.88,8.48,8.48,0,0,0-3-3.19,7.53,7.53,0,0,0-4.13-1C92.71,77.13,91.66,82.43,90.77,86.79Z" fill="#f2609e"/><path d="M62.43,122.34c-2-1-3.89-2.18-5.87-3.21A16.57,16.57,0,0,0,50.48,117a.68.68,0,0,1-.36-.13,20.84,20.84,0,0,1-9.27-1.69A71.37,71.37,0,0,1,38.75,105a73.2,73.2,0,0,1-.58-8.65L31.84,71.83A13.93,13.93,0,0,0,28,75.62c-4.61,6.87-1.55,16.44-2.17,24.4-.12,1.56-.27,3-.43,5.22,0,.22-.15,2.17-.21,3.21A56.15,56.15,0,0,0,25.5,117c.78,6.23,1.57,12.46,5.51,14.69,2.72,1.55,5.92.61,7.61.13C45.43,130,55.38,128,71,126.31A72.82,72.82,0,0,1,62.43,122.34Z" fill="#f2609e"/><path d="M36.34,126.81c.09,1.93.18,3.85.26,5.78,2.17-.13,4-.28,5.38-.4,2.87-.24,4.35-.43,9.06-.92l5.25-.52c10.09-.9,12.84-.15,13.91-1.84s-.34-5-2-6.69C61,114.66,38.8,125.58,36.34,126.81Z" fill="#f2609e"/><path d="M37.83,85.55c-1.12-4.29-2.19-5.22-2.54-7.57a13.73,13.73,0,0,1,1.25-7.7,9.81,9.81,0,0,0-5.38.93,11.22,11.22,0,0,0-4.92,5.61,16.83,16.83,0,0,0-1.58,6c-1.45,17.41-1.36,24.21-.91,33.85.27,6,.54,9.84,3.41,12.6a12.87,12.87,0,0,0,6.56,3.28,12.62,12.62,0,0,0,4.59-.13c4.58-.92,15.32-3,29.65-5.91L41.77,111.79C41,96.66,38.87,89.51,37.83,85.55Z" fill="#f2609e"/><path d="M34.07,72.72c.22,0,2.17,5.49,3.45,11.84,2.29,11.29,1.57,20.67,1.27,20.68s-.13-8.12-2.4-20.86C35.18,77.53,33.87,72.78,34.07,72.72Z" fill="#f2609e"/><path d="M40.85,115.2A34,34,0,0,1,45.79,118c3,2,3.29,2.94,6.17,4.86,2.47,1.64,4,2.68,6.43,3.28s3.89.32,5.9,1.57a8.92,8.92,0,0,1,2.49,2.36h0a89.74,89.74,0,0,1,18.9.79,88,88,0,0,1,9,1.84L40.06,111Z" fill="#f2609e"/><path d="M93.86,132.13A8.5,8.5,0,0,0,99.5,130a8.15,8.15,0,0,0,2.23-3.41c-1.27-1.31-2.59-2.62-3.93-3.94q-3.58-3.5-7.09-6.69c-8.21.45-14.64,1-18.89,1.31-8.14.69-12,1.18-15.88-.66-5.72-2.7-7.48-3.67-7.48-3.67a24.67,24.67,0,0,0-3.8-1.84,21.72,21.72,0,0,0-5-1.18c.08.52.16,1,.26,1.58.23,1.24.5,2.43.79,3.54,1,.66,2.51,1.66,4.33,2.89,5.82,3.9,6.57,4.51,7.87,5.24,2.62,1.48,4,1.48,11.42,2.89,6.4,1.22,1.69.51,16.14,3.41C83.8,130.17,88.37,131.08,93.86,132.13Z" fill="#f2609e"/><path d="M98.93,121.43a9.68,9.68,0,0,1-3.79-2.27,10.14,10.14,0,0,1-2-2.58c-1,0-8-.36-12.68-.14-1.18,0-2.36.13-2.36.13-3,.22-5.21.47-5.71.52A109,109,0,0,1,60,117.5a10.72,10.72,0,0,0-1.44,4.85,10.54,10.54,0,0,0,.26,2.89c2.59.46,4.64.85,6,1.12,1,.2,2.11.41,3.5.73,1.84.43,2.36.67,12.86,2.86,3.36.71,8,1.66,13.57,2.77a6,6,0,0,0,4.83-.4c.76-.48,1.38-1.2,2.23-3.14a25.8,25.8,0,0,0,2-7.61A9,9,0,0,1,98.93,121.43Z" fill="#f2609e"/><path d="M100.47,114.19a3.1,3.1,0,0,0,1.19,0,2.81,2.81,0,0,0,1.4-.73l-2.8-2.3a15.31,15.31,0,0,0-3.58-1.49,14.94,14.94,0,0,0-3.56-.49c-.57.45-1,1-1.56,1.51a4.37,4.37,0,0,1-2.3,1.21c-1.93.32-3.85-.27-5.77-.52L71.82,117.3c5,0,8.7,0,11.28.13s5.19.25,7.48-.52a35.43,35.43,0,0,0,3.41-1,4.35,4.35,0,0,1,2.09-.52,3.66,3.66,0,0,1,1.11.22,5,5,0,0,1,1.1.64c1,.64.91.62,1.15.76a3.35,3.35,0,0,0,1.75.68,2.48,2.48,0,0,0,1.74-1.1l-4.38-3.07A5.74,5.74,0,0,0,100.47,114.19Z" fill="#f2609e"/><path d="M98.29,112.34s.18,0,.51.22.48.3,1,.51a3.24,3.24,0,0,0,2,.46,2.23,2.23,0,0,0,1.14-.69,29.88,29.88,0,0,0-3.18-2.38,7.35,7.35,0,0,0-3.58-1.5H95.4c-1.74,0-3,.05-4,.08-.74,0-1.8,0-3.12.06l1.48-.91c1.81-1.13,2.38-1.53,3.32-1.65a7.51,7.51,0,0,1,1.08,0,17.4,17.4,0,0,1,3.89.63,14.92,14.92,0,0,0,2.84.57,1.46,1.46,0,0,0,.79-.15,1.67,1.67,0,0,0,.77-1c-1.38-.47-2.48-.89-3.21-1.19,0,0-2.49-1-4.88-1.7a4.17,4.17,0,0,0-1.1-.19,4.58,4.58,0,0,0-1.69.25c-1.9.59-4,1.35-4.31,1.47l1.59-1.7a8.16,8.16,0,0,1,1.67-1.59,7.9,7.9,0,0,1,1.62-.68c.65-.23.88-.28,1.93-.6,2.09-.63,2.49-.83,2.73-1.25a1.75,1.75,0,0,0,.17-1.1l-3.12.45-4.09.79a4.56,4.56,0,0,0-1.65.63,4,4,0,0,0-1,.85c-1.47,1.74-3.21,3.24-4.66,5-.75.9-1.4,1.68-2,2.41l-.86,1c-1.62,1.82-3.08,3.33-3.29,3.54-1.18,1.22-2.69,2.72-4.5,4.4,12.13.07,16.79-.5,18.47-1.16a20.78,20.78,0,0,1,2.61-.8c2.79-.68,3.81-.43,4.15-.33a9.77,9.77,0,0,1,1.36.56,14.41,14.41,0,0,0,2.15,1.08c.8.26,1.12.19,1.31.11a1.48,1.48,0,0,0,.74-.73C99.11,113.19,98.25,112.4,98.29,112.34Z" fill="#f2609e"/><path d="M82.94,107.11s.49-.39.82-.62a13.85,13.85,0,0,1,1.33-.83,14.82,14.82,0,0,1,1.59-.71c.49-.19.91-.33,1.22-.42l-.63.63c-.27.08-.61.19-1,.34-.55.2-.86.32-1.26.5A17.64,17.64,0,0,0,82.94,107.11Z" fill="#f2609e"/><path d="M84.5,109.92a9.54,9.54,0,0,1,.91-.74l.22-.17a2.76,2.76,0,0,1,1.62-.28c.41,0,.92,0,1.51.09l-.46.28a10.41,10.41,0,0,0-1,0,5.58,5.58,0,0,0-1.19.09A4.07,4.07,0,0,0,84.5,109.92Z" fill="#f2609e"/><path d="M87.22,112.82a3.48,3.48,0,0,1,1.28-.63,5.67,5.67,0,0,1,1.48-.25c1.44-.09,2.62-.06,2.78-.06,2.21.06,3.4,0,3.4,0s-1.68.14-3.32.18a20.93,20.93,0,0,0-3,.15c-1.17.19-1.84.37-1.84.37A4.4,4.4,0,0,1,87.22,112.82Z" fill="#f2609e"/><path d="M94.69,98.59a1.05,1.05,0,0,0,.51.46c.09,0,.22.07.94,0s.7-.13.75-.19c.24-.28,0-.8,0-.89Z" fill="#f2609e"/><path d="M100.05,105.66a.85.85,0,0,0,.06.57c.11.22.28.28.88.6s.68.4.84.41a1.32,1.32,0,0,0,1-.58Z" fill="#f2609e"/><path d="M101.2,111.45a1,1,0,0,0-.07.49,1.34,1.34,0,0,0,.4.71c.27.3.41.47.65.54a1.26,1.26,0,0,0,1-.26Z" fill="#f2609e"/><path d="M101.11,114.8a.72.72,0,0,0-.15.45.87.87,0,0,0,.29.48c.4.46.6.68.76.71a1,1,0,0,0,.8-.34Z" fill="#f2609e"/></g><path d="M39.17,70.36s7.83-4.26,11.17-3c0,0,20.3,1.6,28,.06a2.5,2.5,0,0,0,1.23-.84s3.56,1.28,5.47,1.84c2.22.66-1.19,2.26-1.79,2.5s-13.52,3.51-14,3.51H52.56l-15.3-2Z" fill="#f2609e"/><path d="M47.5,67.3s10.38,7.48,19,5.2,11.93-5.14,11.93-5.14l-7-3.09L54,65.31Z" fill="#f98562"/><path d="M52.4,65.06s-.09,4,2.21,4.07,6.4,2.2,6.4,2.2l6.12-.55,5.19.55,2.13-3.44-.29-3.82S79,66.5,82.67,67.84s-.55,2.94-.55,2.94l-6.56,2.39L60.23,74,46.34,68.6l.29-1.19s4.46-1.78,5.12-2.07" fill="#f2609e"/><path d="M73.94,60.78s2.83-1.32,4.81,5.45c-.33.34-5.13,7.36-5.13,7.36l-3.84-1.07Z" fill="#f8eee2"/><path d="M50.51,68.39l-1.2-2s1.3-5.77,3.42-5.65,1,3.85,1,3.85Z" fill="#f8eee2"/><path d="M51.15,61.43a1.88,1.88,0,0,1,2.6-.51,1.81,1.81,0,0,1,.86,2.38Z" fill="#f8eee2"/><path d="M75.38,60.33h0c-1-.35-2.2,1-2.2,1L63.7,70,54,61.08a1,1,0,0,0-.2-.15h0a2.11,2.11,0,0,0-2.89.42c-1.49,1.61-2.77,5.49-2.77,5.49L55.9,77a.58.58,0,0,0,.11.15h0a1.5,1.5,0,0,0,2.18,0l5.51-5.91,5.52,5.91a1.49,1.49,0,0,0,2.31-.21l8-10.34S77.53,60.62,75.38,60.33Z" fill="#f8eee2"/><path d="M62.05,90.88a.27.27,0,1,0,.27.27A.27.27,0,0,0,62.05,90.88Z" fill="none"/><path d="M62.05,82a.27.27,0,1,0,.27.27A.27.27,0,0,0,62.05,82Z" fill="none"/><path d="M62.05,95.49a.27.27,0,1,0,.27.27A.27.27,0,0,0,62.05,95.49Z" fill="none"/><path d="M62.05,86.66a.27.27,0,1,0,.27.27A.27.27,0,0,0,62.05,86.66Z" fill="none"/><path d="M90,87.21c.17-1.47.35-2.94.53-4.43-.48,0-.57.25-.62.44-.58,2.31-1.32,4.59-1.69,6.93A90.62,90.62,0,0,0,87,107.79H88c-.54-1.41-.2-3.85-.08-5.28C88.27,97.36,89.41,92.32,90,87.21Z" fill="#b74985"/><path d="M36.87,82.56a204.6,204.6,0,0,1,3.84,25.23h.48C41.48,99.13,39.68,90.77,36.87,82.56Z" fill="#b74985"/><path d="M63.62,75.88a.15.15,0,0,0-.15.15V99.77a.15.15,0,0,0,.15.15.15.15,0,0,0,.15-.15V76A.15.15,0,0,0,63.62,75.88Z" fill="#b74985"/><path d="M62.05,90.58a.57.57,0,1,0,.57.57A.57.57,0,0,0,62.05,90.58Zm0,.83a.27.27,0,1,1,.27-.26A.27.27,0,0,1,62.05,91.41Z" fill="#b74985"/><path d="M62.05,95.2a.57.57,0,1,0,.57.56A.57.57,0,0,0,62.05,95.2Zm0,.83a.27.27,0,1,1,.27-.27A.27.27,0,0,1,62.05,96Z" fill="#b74985"/><path d="M62.05,81.74a.57.57,0,1,0,.57.57A.58.58,0,0,0,62.05,81.74Zm0,.84a.27.27,0,1,1,.27-.27A.27.27,0,0,1,62.05,82.58Z" fill="#b74985"/><path d="M62.05,86.36a.57.57,0,1,0,.57.57A.57.57,0,0,0,62.05,86.36Zm0,.84a.27.27,0,1,1,.27-.27A.27.27,0,0,1,62.05,87.2Z" fill="#b74985"/></g><g clip-path="url(#c)"><g clip-path="url(#b)"><path d="M55.39,35.71h0Z" fill="#f5dfe1"/><path d="M73,35.71h0Z" fill="#f5dfe1"/><rect x="31.55" y="72.68" width="11.46" height="30.99" fill="#f2609e"/><path d="M83.3,26.43a24.1,24.1,0,0,0-4.85-9.75,18.75,18.75,0,0,0-8.26-5.87,18.36,18.36,0,0,0-11.83,0,18.86,18.86,0,0,0-8.27,5.87c-3,3.49-4.15,7-5.24,10.8-4.23,14.68-6.35,22-4.2,25.58a9.63,9.63,0,0,0,2,2.33,12.75,12.75,0,0,1-1.17-3.25c-.32-1.48-.52-3.7,1.05-9.18a62.18,62.18,0,0,1,3.15-8.53,33.42,33.42,0,0,0-2.76,10.89c-.31,4-.52,6.7.79,9.19C47,60.73,57.31,60.85,64.4,60.94c6.87.08,13.21.16,17-4.44a13.4,13.4,0,0,0,2.8-8.16,10,10,0,0,1-1.42,8.49,11.22,11.22,0,0,0,3-2,12,12,0,0,0,2.32-3.17C89.59,48.68,87.49,41.26,83.3,26.43Z" fill="#232323"/><path d="M93.27,73.2l-.3-.15a56.28,56.28,0,0,0-5.64-1.63c-1.17-.31-2.58-.73-4.36-1.34A27.42,27.42,0,0,1,77.86,68c-3.25-2-4-5.2-4.81-8.4a20.19,20.19,0,0,1-.38-7.36L64.82,41.83l-.34-.44-.34.44L56.29,52.22a20.93,20.93,0,0,1-.34,7C55.21,62.54,54.45,66,51.1,68A27.71,27.71,0,0,1,46,70.08c-1.78.61-3.19,1-4.36,1.34A52.66,52.66,0,0,0,36,73.06l-.28.14c-1.09.54-3,1.94-4.48,6,.78,1,11.85,14.39,32.69,14.64A44.07,44.07,0,0,0,97.76,79.23C96.31,75.13,94.35,73.74,93.27,73.2Z" fill="#f98562"/><path d="M56.38,51.83l.15,1.5a19.55,19.55,0,0,0,4.72,5,5.34,5.34,0,0,0,2.89,1.31c.34,0,1.58.08,3.8-1.44a15.59,15.59,0,0,0,4.47-4.72L72.63,52a17.08,17.08,0,0,1-16.25-.15Z" fill="#d3413d" opacity="0.85"/><path d="M51.16,34.34c-.68-.7-1.86-1.18-2.41-.77s-.25,1.12.17,3.61c.68,4,.52,4.26,1,5.19.9,1.61,2.67,3.21,3.4,2.84.91-.47-.87-3.48-1.29-8.55A3.74,3.74,0,0,0,51.16,34.34Z" fill="#ea5757"/><path d="M78.31,34.35c.67-.7,1.86-1.17,2.4-.77s.25,1.12-.17,3.61c-.68,4-.51,4.26-1,5.2-.89,1.61-2.67,3.21-3.4,2.83-.91-.47.87-3.48,1.29-8.55A3.72,3.72,0,0,1,78.31,34.35Z" fill="#ea5757"/><circle cx="51.39" cy="43.36" r="1.52" fill="#fff"/><circle cx="78.2" cy="43.36" r="1.52" fill="#fff"/><path d="M72.26,15.7a14.51,14.51,0,0,0-22,10.5c-.06.56-.07,1.16-.08,2.36,0,1,0,1.91,0,2.78.1,2.67.41,5,.49,5.63.9,6.71,1.35,10.06,2.07,11.52,1.91,3.85,4.87,5.83,7.47,7.58a7.72,7.72,0,0,0,4.42,1.71,7.68,7.68,0,0,0,4.42-1.71c2.47-1.67,5.62-3.81,7.56-7.94.48-1,1-4.4,2-11.16a47.13,47.13,0,0,0,.51-5.51c0-.9,0-1.87,0-2.9s0-1.57-.12-2.19A14.93,14.93,0,0,0,72.26,15.7Z" fill="#f98562"/><path d="M64.94,12.45a15.49,15.49,0,0,0-10.92,4,14.73,14.73,0,0,0-4.75,8.48,31.06,31.06,0,0,0,0,6.07c.07.76.25,1.89.61,4.14a8.15,8.15,0,0,0,.38,1.52,8.4,8.4,0,0,0,.58,1.22,40.31,40.31,0,0,1,.23-4.37h0s0-.37.07-.7a22.93,22.93,0,0,1,1.25-5.1,12.84,12.84,0,0,1,1.47-2.82,12.41,12.41,0,0,1,5.29-4.16,14.43,14.43,0,0,1,5-1.24c.19-1.08.4-2.23.51-3.45Z" fill="#232323"/><path d="M64.41,12.45a15.6,15.6,0,0,1,11,4,14.62,14.62,0,0,1,4.77,8.48,29.55,29.55,0,0,1,0,6.07c-.06.76-.24,1.89-.6,4.14a7.61,7.61,0,0,1-.39,1.52,8.4,8.4,0,0,1-.58,1.22,40.31,40.31,0,0,0-.23-4.37l-.07-.7c-.17-1.39-.89-5.41-2.73-7.92C72,20,66.06,19.54,65.3,19.49Z" fill="#232323"/><path d="M92.2,100.77c0-.08,0-.68.1-1.51,0-.46.07-1,.12-1.6.33-4,.78-7.18,1.06-9,.06-.35.1-.64.14-.87l.07-.47c.07-.4.26-5.14.65-17.18-.92,0-1.88-.13-2.89-.26A36.1,36.1,0,0,1,85,68.42a45.81,45.81,0,0,1-41.59.27c-1.23.28-2.49.54-3.81.78-2.1.39-4.11.69-6,.92a54.05,54.05,0,0,0,.92,9.69c.51,2.7,1,4,1.68,7.38.59,3,1,5.79,1.38,8.47l-1.23,30.88,1.95,4.37c7.22-1.06,15.05-1.93,23.42-2.45a280.34,280.34,0,0,1,28.3-.34C91.61,108.56,92.15,101.65,92.2,100.77Z" fill="#f2609e"/><path d="M103.44,98.8c-1.13-14.58.29-19-3.67-23.62a15.7,15.7,0,0,0-5-3.81q-2.25,13-4.51,26.08a47.38,47.38,0,0,1,1,9c0,2.36.44,3.69,0,5.44a12.06,12.06,0,0,1-3.76,5.64,27.22,27.22,0,0,0,2.63,10.89,24.92,24.92,0,0,0,1.87,3.27,8.17,8.17,0,0,0,5.47-.12c2.78-1.21,4-4.2,5-6.56a26,26,0,0,0,1.84-9.18A136.58,136.58,0,0,0,103.44,98.8Z" fill="#f2609e"/><path d="M90.77,86.79C90,90.4,89.49,93.12,89,96.58c-.23,1.66-.44,3.31-.67,5-.2,1.45-.35,2.93-.66,4.36-.26,1.17-.61,2.33-.77,3.52a4.86,4.86,0,0,0,.3,2.87L74.92,127.86c2.52.62,6,1.44,10.1,2.37,11.48,2.56,12.89,2.46,14.17,1.83,3.45-1.68,4.66-7.35,5.38-18.76a193,193,0,0,0-.39-29.13,21.75,21.75,0,0,0-3-9.88,8.48,8.48,0,0,0-3-3.19,7.53,7.53,0,0,0-4.13-1C92.71,77.13,91.66,82.43,90.77,86.79Z" fill="#f2609e"/><path d="M62.43,122.34c-2-1-3.89-2.18-5.87-3.21A16.57,16.57,0,0,0,50.48,117a.68.68,0,0,1-.36-.13,20.84,20.84,0,0,1-9.27-1.69A71.37,71.37,0,0,1,38.75,105a73.2,73.2,0,0,1-.58-8.65L31.84,71.83A13.93,13.93,0,0,0,28,75.62c-4.61,6.87-1.55,16.44-2.17,24.4-.12,1.56-.27,3-.43,5.22,0,.22-.15,2.17-.21,3.21A56.15,56.15,0,0,0,25.5,117c.78,6.23,1.57,12.46,5.51,14.69,2.72,1.55,5.92.61,7.61.13C45.43,130,55.38,128,71,126.31A72.82,72.82,0,0,1,62.43,122.34Z" fill="#f2609e"/><path d="M36.34,126.81c.09,1.93.18,3.85.26,5.78,2.17-.13,4-.28,5.38-.4,2.87-.24,4.35-.43,9.06-.92l5.25-.52c10.09-.9,12.84-.15,13.91-1.84s-.34-5-2-6.69C61,114.66,38.8,125.58,36.34,126.81Z" fill="#f2609e"/><path d="M37.83,85.55c-1.12-4.29-2.19-5.22-2.54-7.57a13.73,13.73,0,0,1,1.25-7.7,9.81,9.81,0,0,0-5.38.93,11.22,11.22,0,0,0-4.92,5.61,16.83,16.83,0,0,0-1.58,6c-1.45,17.41-1.36,24.21-.91,33.85.27,6,.54,9.84,3.41,12.6a12.87,12.87,0,0,0,6.56,3.28,12.62,12.62,0,0,0,4.59-.13c4.58-.92,15.32-3,29.65-5.91L41.77,111.79C41,96.66,38.87,89.51,37.83,85.55Z" fill="#f2609e"/><path d="M34.07,72.72c.22,0,2.17,5.49,3.45,11.84,2.29,11.29,1.57,20.67,1.27,20.68s-.13-8.12-2.4-20.86C35.18,77.53,33.87,72.78,34.07,72.72Z" fill="#f2609e"/><path d="M40.85,115.2A34,34,0,0,1,45.79,118c3,2,3.29,2.94,6.17,4.86,2.47,1.64,4,2.68,6.43,3.28s3.89.32,5.9,1.57a8.92,8.92,0,0,1,2.49,2.36h0a89.74,89.74,0,0,1,18.9.79,88,88,0,0,1,9,1.84L40.06,111Z" fill="#f2609e"/><path d="M93.86,132.13A8.5,8.5,0,0,0,99.5,130a8.15,8.15,0,0,0,2.23-3.41c-1.27-1.31-2.59-2.62-3.93-3.94q-3.58-3.5-7.09-6.69c-8.21.45-14.64,1-18.89,1.31-8.14.69-12,1.18-15.88-.66-5.72-2.7-7.48-3.67-7.48-3.67a24.67,24.67,0,0,0-3.8-1.84,21.72,21.72,0,0,0-5-1.18c.08.52.16,1,.26,1.58.23,1.24.5,2.43.79,3.54,1,.66,2.51,1.66,4.33,2.89,5.82,3.9,6.57,4.51,7.87,5.24,2.62,1.48,4,1.48,11.42,2.89,6.4,1.22,1.69.51,16.14,3.41C83.8,130.17,88.37,131.08,93.86,132.13Z" fill="#f2609e"/><path d="M98.93,121.43a9.68,9.68,0,0,1-3.79-2.27,10.14,10.14,0,0,1-2-2.58c-1,0-8-.36-12.68-.14-1.18,0-2.36.13-2.36.13-3,.22-5.21.47-5.71.52A109,109,0,0,1,60,117.5a10.72,10.72,0,0,0-1.44,4.85,10.54,10.54,0,0,0,.26,2.89c2.59.46,4.64.85,6,1.12,1,.2,2.11.41,3.5.73,1.84.43,2.36.67,12.86,2.86,3.36.71,8,1.66,13.57,2.77a6,6,0,0,0,4.83-.4c.76-.48,1.38-1.2,2.23-3.14a25.8,25.8,0,0,0,2-7.61A9,9,0,0,1,98.93,121.43Z" fill="#f2609e"/><path d="M100.47,114.19a3.1,3.1,0,0,0,1.19,0,2.81,2.81,0,0,0,1.4-.73l-2.8-2.3a15.31,15.31,0,0,0-3.58-1.49,14.94,14.94,0,0,0-3.56-.49c-.57.45-1,1-1.56,1.51a4.37,4.37,0,0,1-2.3,1.21c-1.93.32-3.85-.27-5.77-.52L71.82,117.3c5,0,8.7,0,11.28.13s5.19.25,7.48-.52a35.43,35.43,0,0,0,3.41-1,4.35,4.35,0,0,1,2.09-.52,3.66,3.66,0,0,1,1.11.22,5,5,0,0,1,1.1.64c1,.64.91.62,1.15.76a3.35,3.35,0,0,0,1.75.68,2.48,2.48,0,0,0,1.74-1.1l-4.38-3.07A5.74,5.74,0,0,0,100.47,114.19Z" fill="#f2609e"/><path d="M98.29,112.34s.18,0,.51.22.48.3,1,.51a3.24,3.24,0,0,0,2,.46,2.23,2.23,0,0,0,1.14-.69,29.88,29.88,0,0,0-3.18-2.38,7.35,7.35,0,0,0-3.58-1.5H95.4c-1.74,0-3,.05-4,.08-.74,0-1.8,0-3.12.06l1.48-.91c1.81-1.13,2.38-1.53,3.32-1.65a7.51,7.51,0,0,1,1.08,0,17.4,17.4,0,0,1,3.89.63,14.92,14.92,0,0,0,2.84.57,1.46,1.46,0,0,0,.79-.15,1.67,1.67,0,0,0,.77-1c-1.38-.47-2.48-.89-3.21-1.19,0,0-2.49-1-4.88-1.7a4.17,4.17,0,0,0-1.1-.19,4.58,4.58,0,0,0-1.69.25c-1.9.59-4,1.35-4.31,1.47l1.59-1.7a8.16,8.16,0,0,1,1.67-1.59,7.9,7.9,0,0,1,1.62-.68c.65-.23.88-.28,1.93-.6,2.09-.63,2.49-.83,2.73-1.25a1.75,1.75,0,0,0,.17-1.1l-3.12.45-4.09.79a4.56,4.56,0,0,0-1.65.63,4,4,0,0,0-1,.85c-1.47,1.74-3.21,3.24-4.66,5-.75.9-1.4,1.68-2,2.41l-.86,1c-1.62,1.82-3.08,3.33-3.29,3.54-1.18,1.22-2.69,2.72-4.5,4.4,12.13.07,16.79-.5,18.47-1.16a20.78,20.78,0,0,1,2.61-.8c2.79-.68,3.81-.43,4.15-.33a9.77,9.77,0,0,1,1.36.56,14.41,14.41,0,0,0,2.15,1.08c.8.26,1.12.19,1.31.11a1.48,1.48,0,0,0,.74-.73C99.11,113.19,98.25,112.4,98.29,112.34Z" fill="#f2609e"/><path d="M82.94,107.11s.49-.39.82-.62a13.85,13.85,0,0,1,1.33-.83,14.82,14.82,0,0,1,1.59-.71c.49-.19.91-.33,1.22-.42l-.63.63c-.27.08-.61.19-1,.34-.55.2-.86.32-1.26.5A17.64,17.64,0,0,0,82.94,107.11Z" fill="#f2609e"/><path d="M84.5,109.92a9.54,9.54,0,0,1,.91-.74l.22-.17a2.76,2.76,0,0,1,1.62-.28c.41,0,.92,0,1.51.09l-.46.28a10.41,10.41,0,0,0-1,0,5.58,5.58,0,0,0-1.19.09A4.07,4.07,0,0,0,84.5,109.92Z" fill="#f2609e"/><path d="M87.22,112.82a3.48,3.48,0,0,1,1.28-.63,5.67,5.67,0,0,1,1.48-.25c1.44-.09,2.62-.06,2.78-.06,2.21.06,3.4,0,3.4,0s-1.68.14-3.32.18a20.93,20.93,0,0,0-3,.15c-1.17.19-1.84.37-1.84.37A4.4,4.4,0,0,1,87.22,112.82Z" fill="#f2609e"/><path d="M94.69,98.59a1.05,1.05,0,0,0,.51.46c.09,0,.22.07.94,0s.7-.13.75-.19c.24-.28,0-.8,0-.89Z" fill="#f2609e"/><path d="M100.05,105.66a.85.85,0,0,0,.06.57c.11.22.28.28.88.6s.68.4.84.41a1.32,1.32,0,0,0,1-.58Z" fill="#f2609e"/><path d="M101.2,111.45a1,1,0,0,0-.07.49,1.34,1.34,0,0,0,.4.71c.27.3.41.47.65.54a1.26,1.26,0,0,0,1-.26Z" fill="#f2609e"/><path d="M101.11,114.8a.72.72,0,0,0-.15.45.87.87,0,0,0,.29.48c.4.46.6.68.76.71a1,1,0,0,0,.8-.34Z" fill="#f2609e"/></g><path d="M39.17,70.36s7.83-4.26,11.17-3c0,0,20.3,1.6,28,.06a2.5,2.5,0,0,0,1.23-.84s3.56,1.28,5.47,1.84c2.22.66-1.19,2.26-1.79,2.5s-13.52,3.51-14,3.51H52.56l-15.3-2Z" fill="#f2609e"/><path d="M47.5,67.3s10.38,7.48,19,5.2,11.93-5.14,11.93-5.14l-7-3.09L54,65.31Z" fill="#f98562"/><path d="M52.4,65.06s-.09,4,2.21,4.07,6.4,2.2,6.4,2.2l6.12-.55,5.19.55,2.13-3.44-.29-3.82S79,66.5,82.67,67.84s-.55,2.94-.55,2.94l-6.56,2.39L60.23,74,46.34,68.6l.29-1.19s4.46-1.78,5.12-2.07" fill="#f2609e"/><path d="M73.94,60.78s2.83-1.32,4.81,5.45c-.33.34-5.13,7.36-5.13,7.36l-3.84-1.07Z" fill="#f8eee2"/><path d="M50.51,68.39l-1.2-2s1.3-5.77,3.42-5.65,1,3.85,1,3.85Z" fill="#f8eee2"/><path d="M51.15,61.43a1.88,1.88,0,0,1,2.6-.51,1.81,1.81,0,0,1,.86,2.38Z" fill="#f8eee2"/><path d="M75.38,60.33h0c-1-.35-2.2,1-2.2,1L63.7,70,54,61.08a1,1,0,0,0-.2-.15h0a2.11,2.11,0,0,0-2.89.42c-1.49,1.61-2.77,5.49-2.77,5.49L55.9,77a.58.58,0,0,0,.11.15h0a1.5,1.5,0,0,0,2.18,0l5.51-5.91,5.52,5.91a1.49,1.49,0,0,0,2.31-.21l8-10.34S77.53,60.62,75.38,60.33Z" fill="#f8eee2"/><path d="M62.05,90.88a.27.27,0,1,0,.27.27A.27.27,0,0,0,62.05,90.88Z" fill="none"/><path d="M62.05,82a.27.27,0,1,0,.27.27A.27.27,0,0,0,62.05,82Z" fill="none"/><path d="M62.05,95.49a.27.27,0,1,0,.27.27A.27.27,0,0,0,62.05,95.49Z" fill="none"/><path d="M62.05,86.66a.27.27,0,1,0,.27.27A.27.27,0,0,0,62.05,86.66Z" fill="none"/><path d="M90,87.21c.17-1.47.35-2.94.53-4.43-.48,0-.57.25-.62.44-.58,2.31-1.32,4.59-1.69,6.93A90.62,90.62,0,0,0,87,107.79H88c-.54-1.41-.2-3.85-.08-5.28C88.27,97.36,89.41,92.32,90,87.21Z" fill="#b74985"/><path d="M36.87,82.56a204.6,204.6,0,0,1,3.84,25.23h.48C41.48,99.13,39.68,90.77,36.87,82.56Z" fill="#b74985"/><path d="M63.62,75.88a.15.15,0,0,0-.15.15V99.77a.15.15,0,0,0,.15.15.15.15,0,0,0,.15-.15V76A.15.15,0,0,0,63.62,75.88Z" fill="#b74985"/><path d="M62.05,90.58a.57.57,0,1,0,.57.57A.57.57,0,0,0,62.05,90.58Zm0,.83a.27.27,0,1,1,.27-.26A.27.27,0,0,1,62.05,91.41Z" fill="#b74985"/><path d="M62.05,95.2a.57.57,0,1,0,.57.56A.57.57,0,0,0,62.05,95.2Zm0,.83a.27.27,0,1,1,.27-.27A.27.27,0,0,1,62.05,96Z" fill="#b74985"/><path d="M62.05,81.74a.57.57,0,1,0,.57.57A.58.58,0,0,0,62.05,81.74Zm0,.84a.27.27,0,1,1,.27-.27A.27.27,0,0,1,62.05,82.58Z" fill="#b74985"/><path d="M62.05,86.36a.57.57,0,1,0,.57.57A.57.57,0,0,0,62.05,86.36Zm0,.84a.27.27,0,1,1,.27-.27A.27.27,0,0,1,62.05,87.2Z" fill="#b74985"/></g></svg>