<?xml version="1.0" encoding="utf-8"?>
<!-- Generator: Adobe Illustrator 26.0.3, SVG Export Plug-In . SVG Version: 6.00 Build 0)  -->
<svg version="1.1" id="Layer_1" xmlns:serif="http://www.serif.com/"
	 xmlns="http://www.w3.org/2000/svg" xmlns:xlink="http://www.w3.org/1999/xlink" x="0px" y="0px" viewBox="0 0 40 40"
	 style="enable-background:new 0 0 40 40;" xml:space="preserve">
<style type="text/css">
	.st0{fill:#CCFF33;}
</style>
<path class="st0" d="M34.1,39L0.8,6c-0.7-0.7-0.7-1.6,0-2.3l3-3c0.7-0.7,1.6-0.7,2.3,0l33.4,32.9c0.7,0.7,0.7,1.6,0,2.3l-3,3
	C35.9,39.6,34.8,39.6,34.1,39z"/>
<path class="st0" d="M1.5,33.9L34,0.9c1-1,2.5-1,3.5,0l1.8,1.7c1,1,1,2.5,0,3.5l-32.6,33c-1,1-2.5,1-3.5,0l-1.8-1.7
	C0.5,36.4,0.5,34.9,1.5,33.9z"/>
</svg>
