<?xml version="1.0" encoding="utf-8"?>
<!-- Generator: Adobe Illustrator 26.0.3, SVG Export Plug-In . SVG Version: 6.00 Build 0)  -->
<svg version="1.1" id="Layer_1" xmlns:serif="http://www.serif.com/"
	 xmlns="http://www.w3.org/2000/svg" xmlns:xlink="http://www.w3.org/1999/xlink" x="0px" y="0px" viewBox="0 0 40 40"
	 style="enable-background:new 0 0 40 40;" xml:space="preserve">
<style type="text/css">
	.st0{fill:#CCFF33;}
</style>
<g>
	<path class="st0" d="M20,0c-5.4,0-6.1,0-8.2,0.1c-2.2,0.1-3.6,0.5-4.9,1S4.5,2.2,3.4,3.4C2.2,4.5,1.6,5.6,1,6.9
		c-0.5,1.3-0.8,2.7-0.9,4.9C0,13.9,0,14.6,0,20s0,6.1,0.1,8.2s0.4,3.6,0.9,4.9c0.5,1.3,1.2,2.4,2.3,3.5s2.2,1.8,3.5,2.3
		s2.7,0.8,4.9,0.9C13.9,40,14.6,40,20,40s6.1,0,8.2-0.1s3.6-0.4,4.9-0.9c1.3-0.5,2.4-1.2,3.5-2.3s1.8-2.2,2.3-3.5s0.8-2.7,0.9-4.9
		C40,26.1,40,25.4,40,20s0-6.1-0.1-8.2S39.5,8.2,39,6.9s-1.2-2.4-2.3-3.5s-2.2-1.8-3.5-2.3s-2.7-0.8-4.9-0.9C26.1,0,25.4,0,20,0z
		 M20,3.6c5.3,0,6,0,8.1,0.1c1.9,0.1,3,0.4,3.7,0.7c0.9,0.4,1.6,0.8,2.3,1.5s1.1,1.4,1.5,2.3c0.3,0.7,0.6,1.8,0.7,3.7
		c0.1,2.1,0.1,2.7,0.1,8.1c0,5.3,0,6-0.1,8.1c-0.1,1.9-0.4,3-0.7,3.7c-0.4,0.9-0.8,1.6-1.5,2.3s-1.4,1.1-2.3,1.5
		c-0.7,0.3-1.8,0.6-3.7,0.7c-2.1,0.1-2.7,0.1-8.1,0.1c-5.3,0-6,0-8.1-0.1c-1.9-0.1-3-0.4-3.7-0.7c-0.9-0.4-1.6-0.8-2.3-1.5
		s-1.1-1.4-1.5-2.3c-0.3-0.7-0.6-1.8-0.7-3.7C3.6,26,3.6,25.3,3.6,20s0-6,0.1-8.1c0.1-1.9,0.4-3,0.7-3.7c0.4-0.9,0.8-1.6,1.5-2.3
		s1.4-1.1,2.3-1.5c0.7-0.3,1.8-0.6,3.7-0.7C14,3.6,14.7,3.6,20,3.6z"/>
	<path class="st0" d="M20,26.7c-3.7,0-6.7-3-6.7-6.7s3-6.7,6.7-6.7s6.7,3,6.7,6.7S23.7,26.7,20,26.7z M20,9.7
		C14.3,9.7,9.7,14.3,9.7,20S14.3,30.3,20,30.3S30.3,25.7,30.3,20S25.7,9.7,20,9.7z"/>
	<path class="st0" d="M33.1,9.3c0,1.3-1.1,2.4-2.4,2.4s-2.4-1.1-2.4-2.4s1.1-2.4,2.4-2.4C32,6.9,33.1,8,33.1,9.3z"/>
</g>
</svg>
