<?xml version="1.0" encoding="utf-8"?>
<!-- Generator: Adobe Illustrator 26.0.3, SVG Export Plug-In . SVG Version: 6.00 Build 0)  -->
<svg version="1.1" id="Capa_1" xmlns="http://www.w3.org/2000/svg" xmlns:xlink="http://www.w3.org/1999/xlink" x="0px" y="0px"
	 viewBox="0 0 294 294" style="enable-background:new 0 0 294 294;" xml:space="preserve">
<style type="text/css">
	.st0{fill:#38B000;stroke:#006400;stroke-miterlimit:10;}
	.st1{fill:#CCFF33;stroke:#004B23;stroke-width:8;stroke-miterlimit:10;}
	.st2{fill:none;stroke:#004B23;stroke-width:8;stroke-miterlimit:10;}
</style>
<path class="st0" d="M275.2,310.5H16.8c-18.4,0-33.3-14.9-33.3-33.3V15.8c0-18.4,14.9-33.3,33.3-33.3h258.3
	c18.4,0,33.3,14.9,33.3,33.3v261.3C308.5,295.6,293.6,310.5,275.2,310.5z"/>
<g>
	<path class="st1" d="M99.1,253c-6.6,7.6-16.2,12.3-27,12.3s-20.5-4.8-27-12.3c0.1-5.9,8.4-10.9,19.7-12.5v-10.4
		c-3.6-2.4-6-6.6-6-11.3c0-7.5,6-13.5,13.5-13.5s13.5,6,13.5,13.5c0,4.7-2.4,8.8-6,11.3v10.4C90.9,242.2,99,247.2,99.1,253z"/>
	<path class="st2" d="M107.9,229.6c0,9-3,18.8-8.7,23.4c-0.1-5.9-8.2-10.8-19.4-12.4v-10.4c3.6-2.4,6-6.6,6-11.3
		c0-7.5-6-13.5-13.5-13.5s-13.5,6-13.5,13.5c0,4.7,2.4,8.8,6,11.3v10.4c-11.3,1.5-19.6,6.5-19.7,12.5c-6.2-5.7-8.7-14.5-8.7-23.4
		c0-19.7,16-35.8,35.8-35.8S107.9,209.9,107.9,229.6z"/>
	<path class="st2" d="M45.1,253C45.1,253.1,45.1,253.1,45.1,253"/>
	<path class="st2" d="M99.1,253.1C99.1,253.1,99.1,253.1,99.1,253.1"/>
</g>
<g>
	<path class="st1" d="M88.1,91.4c-6.6,7.6-16.2,12.3-27,12.3s-20.5-4.8-27-12.3c0.1-5.9,8.4-10.9,19.7-12.5V68.6
		c-3.6-2.4-6-6.6-6-11.3c0-7.5,6-13.5,13.5-13.5s13.5,6,13.5,13.5c0,4.7-2.4,8.8-6,11.3V79C79.9,80.6,88,85.5,88.1,91.4z"/>
	<path class="st2" d="M96.9,68c0,9-3,18.8-8.7,23.4C88,85.5,79.9,80.6,68.7,79V68.6c3.6-2.4,6-6.6,6-11.3c0-7.5-6-13.5-13.5-13.5
		s-13.5,6-13.5,13.5c0,4.7,2.4,8.8,6,11.3v10.4c-11.3,1.5-19.6,6.5-19.7,12.5c-6.2-5.7-8.7-14.5-8.7-23.4c0-19.7,16-35.8,35.8-35.8
		S96.9,48.2,96.9,68z"/>
	<path class="st2" d="M34.1,91.4C34.1,91.4,34.1,91.5,34.1,91.4"/>
	<path class="st2" d="M88.1,91.5C88.1,91.5,88.1,91.4,88.1,91.5"/>
</g>
<g>
	<path class="st1" d="M265.5,253c-6.6,7.6-16.2,12.3-27,12.3s-20.5-4.8-27-12.3c0.1-5.9,8.4-10.9,19.7-12.5v-10.4
		c-3.6-2.4-6-6.6-6-11.3c0-7.5,6-13.5,13.5-13.5s13.5,6,13.5,13.5c0,4.7-2.4,8.8-6,11.3v10.4C257.2,242.2,265.4,247.2,265.5,253z"/>
	<path class="st2" d="M274.2,229.6c0,9-3,18.8-8.7,23.4c-0.1-5.9-8.2-10.8-19.4-12.4v-10.4c3.6-2.4,6-6.6,6-11.3
		c0-7.5-6-13.5-13.5-13.5s-13.5,6-13.5,13.5c0,4.7,2.4,8.8,6,11.3v10.4c-11.3,1.5-19.6,6.5-19.7,12.5c-6.2-5.7-8.7-14.5-8.7-23.4
		c0-19.7,16-35.8,35.8-35.8C258.2,193.9,274.2,209.9,274.2,229.6z"/>
	<path class="st2" d="M211.5,253C211.5,253.1,211.5,253.1,211.5,253"/>
	<path class="st2" d="M265.5,253.1C265.5,253.1,265.5,253.1,265.5,253.1"/>
</g>
<g>
	<path class="st1" d="M181.5,170.2c-6.6,7.6-16.2,12.3-27,12.3s-20.5-4.8-27-12.3c0.1-5.9,8.4-10.9,19.7-12.5v-10.4
		c-3.6-2.4-6-6.6-6-11.3c0-7.5,6-13.5,13.5-13.5s13.5,6,13.5,13.5c0,4.7-2.4,8.8-6,11.3v10.4C173.2,159.3,181.4,164.3,181.5,170.2z"
		/>
	<path class="st1" d="M190.2,146.8c0,9-3,18.8-8.7,23.4c-0.1-5.9-8.2-10.8-19.4-12.4v-10.4c3.6-2.4,6-6.6,6-11.3
		c0-7.5-6-13.5-13.5-13.5s-13.5,6-13.5,13.5c0,4.7,2.4,8.8,6,11.3v10.4c-11.3,1.5-19.6,6.5-19.7,12.5c-6.2-5.7-8.7-14.5-8.7-23.4
		c0-19.7,16-35.8,35.8-35.8S190.2,127,190.2,146.8z"/>
</g>
<g>
	<path class="st1" d="M265.5,91.4c-6.6,7.6-16.2,12.3-27,12.3s-20.5-4.8-27-12.3c0.1-5.9,8.4-10.9,19.7-12.5V68.6
		c-3.6-2.4-6-6.6-6-11.3c0-7.5,6-13.5,13.5-13.5s13.5,6,13.5,13.5c0,4.7-2.4,8.8-6,11.3V79C257.2,80.6,265.4,85.5,265.5,91.4z"/>
	<path class="st2" d="M274.2,68c0,9-3,18.8-8.7,23.4c-0.1-5.9-8.2-10.8-19.4-12.4V68.6c3.6-2.4,6-6.6,6-11.3c0-7.5-6-13.5-13.5-13.5
		s-13.5,6-13.5,13.5c0,4.7,2.4,8.8,6,11.3v10.4c-11.3,1.5-19.6,6.5-19.7,12.5c-6.2-4.7-8.7-14.5-8.7-23.4c0-19.7,16-35.8,35.8-35.8
		C258.2,32.2,274.2,48.2,274.2,68z"/>
	<path class="st2" d="M211.5,91.4C211.5,91.4,211.5,91.5,211.5,91.4"/>
	<path class="st2" d="M265.5,91.5C265.5,91.5,265.5,91.4,265.5,91.5"/>
</g>
</svg>
