<?xml version="1.0" encoding="utf-8"?>
<!-- Generator: Adobe Illustrator 26.0.3, SVG Export Plug-In . SVG Version: 6.00 Build 0)  -->
<svg version="1.1" id="Layer_1" xmlns:serif="http://www.serif.com/"
	 xmlns="http://www.w3.org/2000/svg" xmlns:xlink="http://www.w3.org/1999/xlink" x="0px" y="0px" viewBox="0 0 40 40"
	 style="enable-background:new 0 0 40 40;" xml:space="preserve">
<style type="text/css">
	.st0{fill:none;}
	.st1{fill:#CCFF33;}
</style>
<rect x="4.4" y="4.4" class="st0" width="31.3" height="31.3"/>
<path class="st1" d="M12.6,36.3C27.7,36.3,36,23.8,36,12.9c0-0.4,0-0.7,0-1.1c1.6-1.2,3-2.6,4.1-4.2c-1.5,0.7-3.1,1.1-4.7,1.3
	c1.7-1,3-2.6,3.6-4.5c-1.6,1-3.4,1.6-5.2,2c-1.6-1.7-3.7-2.6-6-2.6c-4.5,0-8.2,3.7-8.2,8.2c0,0.6,0.1,1.2,0.2,1.9
	c-6.6-0.3-12.7-3.5-16.9-8.6c-2.2,3.7-1,8.6,2.5,11c-1.3,0-2.6-0.4-3.7-1v0.1c0,3.9,2.8,7.3,6.6,8c-1.2,0.3-2.5,0.4-3.7,0.1
	c1.1,3.3,4.2,5.6,7.7,5.7C9.2,31.4,5.6,32.7,2,32.7c-0.7,0-1.3,0-2-0.1C3.8,35,8.1,36.3,12.6,36.3"/>
</svg>
