<?xml version="1.0" encoding="utf-8"?>
<!-- Generator: Adobe Illustrator 24.3.0, SVG Export Plug-In . SVG Version: 6.00 Build 0)  -->
<svg version="1.1" id="Layer_1" xmlns:serif="http://www.serif.com/"
	 xmlns="http://www.w3.org/2000/svg" xmlns:xlink="http://www.w3.org/1999/xlink" x="0px" y="0px" viewBox="0 0 40 40"
	 style="enable-background:new 0 0 40 40;" xml:space="preserve">
<style type="text/css">
	.st0{fill:none;stroke:#F9C74F;stroke-width:2;stroke-miterlimit:10;}
	.st1{fill-rule:evenodd;clip-rule:evenodd;fill:#FFFFFF;}
	.st2{fill:none;}
	.st3{fill-rule:evenodd;clip-rule:evenodd;fill:#F9C74F;}
</style>
<g id="WhatsApp-Logo-Icon">
	<path class="st0" d="M9.1,0C8.2,0,7,0.1,6.5,0.2C5.7,0.4,5,0.6,4.4,1C3.6,1.3,3,1.8,2.4,2.4C1.8,3,1.3,3.6,1,4.4
		C0.6,5,0.4,5.7,0.2,6.5C0.1,7,0,8.2,0,9.1c0,0.4,0,0.8,0,1.1v19.7v1.1c0,0.9,0.1,2,0.2,2.6C0.4,34.3,0.6,35,1,35.6
		c0.4,0.8,0.8,1.4,1.4,2c0.6,0.6,1.2,1.1,2,1.4c0.6,0.3,1.4,0.6,2.2,0.7C7,39.9,8.2,40,9.1,40c0.4,0,0.8,0,1.1,0h19.7h1.1
		c0.9,0,2-0.1,2.6-0.2c0.8-0.2,1.6-0.4,2.2-0.7c0.8-0.4,1.4-0.8,2-1.4c0.6-0.6,1.1-1.2,1.4-2c0.3-0.6,0.6-1.4,0.7-2.2
		c0.1-0.5,0.2-1.7,0.2-2.6c0-0.4,0-0.8,0-1.1V9.1c0-0.9-0.1-2-0.2-2.6C39.6,5.7,39.4,5,39,4.4c-0.4-0.8-0.8-1.4-1.4-2
		c-0.6-0.6-1.2-1.1-2-1.4c-0.6-0.3-1.4-0.6-2.2-0.7C33,0.1,31.8,0,30.9,0c-0.4,0-0.8,0-1.1,0C29.8,0,9.1,0,9.1,0z"/>
	<path class="st1" d="M26.9,22.6c-0.4-0.2-2.1-1-2.4-1.2c-0.3-0.1-0.6-0.2-0.8,0.2c-0.2,0.4-0.9,1.2-1.1,1.4
		c-0.2,0.2-0.4,0.3-0.8,0.1c-0.4-0.2-1.5-0.6-2.9-1.8c-1.1-0.9-1.8-2.1-2-2.5c-0.2-0.4,0-0.5,0.2-0.7c0.2-0.2,0.4-0.4,0.5-0.6
		c0.2-0.2,0.2-0.4,0.4-0.6s0.1-0.4,0-0.6c-0.1-0.2-0.8-1.9-1.1-2.6c-0.3-0.7-0.6-0.6-0.8-0.6c-0.2,0-0.4,0-0.7,0
		c-0.2,0-0.6,0.1-1,0.4c-0.3,0.4-1.2,1.2-1.2,3c0,1.8,1.3,3.4,1.5,3.7c0.2,0.2,2.5,3.8,6.1,5.4c0.9,0.4,1.5,0.6,2,0.8
		c0.9,0.3,1.6,0.2,2.2,0.1c0.7-0.1,2.1-0.9,2.4-1.7c0.3-0.8,0.3-1.5,0.2-1.7C27.5,22.9,27.3,22.8,26.9,22.6 M20.4,31.5L20.4,31.5
		c-2.1,0-4.2-0.6-6-1.7L14,29.6l-4.5,1.2l1.2-4.4L10.4,26c-1.2-1.9-1.8-4.1-1.8-6.3c0-6.5,5.3-11.8,11.9-11.8c3.2,0,6.1,1.2,8.4,3.5
		s3.5,5.2,3.5,8.4C32.3,26.2,27,31.5,20.4,31.5 M30.5,9.6c-2.7-2.7-6.3-4.2-10.1-4.2c-7.9,0-14.3,6.4-14.3,14.3c0,2.5,0.7,5,1.9,7.1
		l-2,7.4l7.6-2c2.1,1.1,4.4,1.7,6.8,1.7h0c7.9,0,14.3-6.4,14.3-14.3C34.7,15.9,33.2,12.3,30.5,9.6"/>
</g>
<g id="WhatsApp-Logo-Icon_1_">
	<path class="st2" d="M9.1-0.1C8.2,0,7,0,6.5,0.2C5.7,0.3,5,0.6,4.4,0.9C3.6,1.2,3,1.7,2.4,2.3C1.8,2.9,1.3,3.5,1,4.3
		C0.6,4.9,0.4,5.6,0.2,6.4C0.1,7,0,8.1,0,9c0,0.4,0,0.8,0,1.1v19.7v1.1c0,0.9,0.1,2,0.2,2.6C0.4,34.2,0.6,35,1,35.6
		c0.4,0.8,0.8,1.4,1.4,2c0.6,0.6,1.2,1.1,2,1.4c0.6,0.3,1.4,0.6,2.2,0.7c0.5,0.1,1.7,0.2,2.6,0.2c0.4,0,0.8,0,1.1,0h19.7h1.1
		c0.9,0,2-0.1,2.6-0.2c0.8-0.2,1.6-0.4,2.2-0.7c0.8-0.4,1.4-0.8,2-1.4c0.6-0.6,1.1-1.2,1.4-2c0.3-0.6,0.6-1.4,0.7-2.2
		c0.1-0.5,0.2-1.7,0.2-2.6c0-0.4,0-0.8,0-1.1V9c0-0.9-0.1-2-0.2-2.6c-0.2-0.8-0.4-1.6-0.7-2.2c-0.4-0.8-0.8-1.4-1.4-2
		c-0.6-0.6-1.2-1.1-2-1.4c-0.6-0.3-1.4-0.6-2.2-0.7C33,0,31.8,0,30.9,0c-0.4,0-0.8,0-1.1,0C29.8-0.1,9.1-0.1,9.1-0.1z"/>
	<path class="st3" d="M26.9,22.5c-0.4-0.2-2.1-1-2.4-1.2c-0.3-0.1-0.6-0.2-0.8,0.2c-0.2,0.4-0.9,1.2-1.1,1.4
		c-0.2,0.2-0.4,0.3-0.8,0.1c-0.4-0.2-1.5-0.6-2.9-1.8c-1.1-0.9-1.8-2.1-2-2.5s0-0.5,0.2-0.7c0.2-0.2,0.4-0.4,0.5-0.6
		c0.2-0.2,0.2-0.4,0.4-0.6c0.1-0.2,0.1-0.4,0-0.6c-0.1-0.2-0.8-1.9-1.1-2.6c-0.3-0.7-0.6-0.6-0.8-0.6c-0.2,0-0.4,0-0.7,0
		c-0.2,0-0.6,0.1-1,0.4c-0.3,0.4-1.2,1.2-1.2,3c0,1.8,1.3,3.4,1.5,3.7c0.2,0.2,2.5,3.8,6.1,5.4c0.9,0.4,1.5,0.6,2,0.8
		c0.9,0.3,1.6,0.2,2.2,0.1c0.7-0.1,2.1-0.9,2.4-1.7c0.3-0.8,0.3-1.5,0.2-1.7C27.5,22.8,27.3,22.7,26.9,22.5 M20.4,31.4L20.4,31.4
		c-2.1,0-4.2-0.6-6-1.7L14,29.5l-4.5,1.2l1.2-4.4l-0.3-0.4c-1.2-1.9-1.8-4.1-1.8-6.3c0-6.5,5.3-11.8,11.9-11.8
		c3.2,0,6.1,1.2,8.4,3.5s3.5,5.2,3.5,8.4C32.3,26.1,27,31.4,20.4,31.4 M30.5,9.5c-2.7-2.7-6.3-4.2-10.1-4.2
		c-7.9,0-14.3,6.4-14.3,14.3c0,2.5,0.7,5,1.9,7.1l-2,7.4l7.6-2c2.1,1.1,4.4,1.7,6.8,1.7h0c7.9,0,14.3-6.4,14.3-14.3
		C34.7,15.8,33.2,12.2,30.5,9.5"/>
</g>
</svg>
